<svg id="Capa_1" enable-background="new 0 0 512 512" height="512" viewBox="0 0 512 512" width="512" xmlns="http://www.w3.org/2000/svg"><g><path d="m406 0c-57.9 0-105 48.1-105 106 0 45.901 30 86.1 73.5 99.901l31.5 47.1 31.5-47.1c43.5-13.801 74.5-54 74.5-99.901 0-57.9-48.1-106-106-106z" fill="#6aa9ff"/><path d="m512 106c0 45.901-31 86.1-74.5 99.901l-31.5 47.1v-253.001c57.9 0 106 48.1 106 106z" fill="#2682ff"/><path d="m106 0c-57.9 0-106 48.1-106 106 0 45.901 31 86.1 74.5 99.901l31.5 47.1 31.5-47.1c43.5-13.801 73.5-54 73.5-99.901 0-57.9-47.1-106-105-106z" fill="#6aa9ff"/><path d="m211 106c0 45.901-30 86.1-73.5 99.901l-31.5 47.1v-253.001c57.9 0 105 48.1 105 106z" fill="#2682ff"/><path d="m287.5 306.099-31.5-47.1-31.5 47.1c-43.5 13.801-73.5 54-73.5 99.901 0 57.9 47.1 106 105 106s105-48.1 105-106c0-45.901-30-86.1-73.5-99.901z" fill="#ff6c6c"/><path d="m361 406c0 57.9-47.1 106-105 106v-253.001l31.5 47.1c43.5 13.801 73.5 54 73.5 99.901z" fill="#e63950"/><path d="m286 241h90v30h-90z" fill="#32393f"/><path d="m436 241h76v30h-76z" fill="#32393f"/><path d="m0 241h76v30h-76z" fill="#474f54"/><path d="m136 241h90v30h-90z" fill="#474f54"/><path d="m151 91v30h-60v-60h30v30z" fill="#fff5f5"/><path d="m271 399.789v-38.789h-15-15v51.211l15 15 19.395 19.394 21.21-21.21z" fill="#fff5f5"/><path d="m296.605 425.395-25.605-25.606v-38.789h-15v66.211l19.395 19.394z" fill="#efe2dd"/><path d="m151 91v30h-45v-60h15v30z" fill="#efe2dd"/><path d="m406 61h-15v38.789l-25.605 25.606 21.21 21.21 19.395-19.394 15-15v-51.211z" fill="#fff5f5"/><path d="m421 61h-15v66.211l15-15z" fill="#efe2dd"/></g></svg>